<svg xmlns="http://www.w3.org/2000/svg" viewBox="0 0 1749.5 2000.1">
  <defs>
    <style>
      .cls-1 {
        fill: #a0eae8;
      }

      .cls-2 {
        fill: #191970;
      }

      .cls-3 {
        fill: #ffcd94;
      }

      .cls-4 {
        fill: #f9af6b;
      }

      .cls-5 {
        fill: #fff;
      }

      .cls-6 {
        fill: #f70d0d;
      }

      .cls-7 {
        fill: #f2da91;
      }

      .cls-8 {
        fill: #f9f9f9;
      }

      .cls-9 {
        fill: #67b7c9;
      }

      .cls-10 {
        fill: #d36683;
      }

      .cls-11 {
        fill: #e5c53c;
      }

      .cls-12 {
        fill: #71ccc7;
      }

      .cls-13 {
        fill: #c44e9d;
      }

      .cls-14 {
        fill: #c67daa;
      }

      .cls-15 {
        fill: #4dc17e;
      }

      .cls-16 {
        fill: #934002;
      }

      .cls-17 {
        fill: #c45800;
      }

      .cls-18 {
        fill: #dd791f;
      }

      .cls-19 {
        fill: #e2af76;
      }

      .cls-20 {
        fill: #e0954b;
      }
    </style>
  </defs>
  <title>Trump_spritesheet_farve</title>
  <g id="arme">
    <g>
      <rect class="cls-1" x="349.25" y="1000.1" width="350" height="500"/>
      <g>
        <g>
          <path class="cls-2" d="M588.53,1234.16l10.79-16.61s73.23-7.56,42.47-57.43l30.54-16.39L676,1194.1s6.08,21.27-15.46,23.81Z"/>
          <g>
            <path class="cls-3" d="M631.39,1158.45s36.83,28.28,56.47-22.3c0,0-1.26-12.83-20.25-13.15,0,0-7.73-.73-4.42,3.75,0,0-13.31-9-13.52,3.54,0,0-14.8-8.94-11.47,6.21C638.2,1136.5,613.53,1132.61,631.39,1158.45Z"/>
            <polygon class="cls-4" points="644.26 1152.04 637.79 1136.51 638.5 1136.28 644.94 1151.98 644.26 1152.04"/>
            <polygon class="cls-4" points="655.71 1145.71 649.25 1130.18 649.96 1129.95 656.4 1145.67 655.71 1145.71"/>
            <polygon class="cls-4" points="670.86 1141.81 662.98 1126.8 663.66 1126.49 671.54 1141.69 670.86 1141.81"/>
          </g>
        </g>
        <g>
          <path class="cls-2" d="M472.3,1234l-13.06-16.6s-72.89-2.28-44.51-56.54l-33.12-15.1.57,55.84s-2.67,18.9,18,22.83Z"/>
          <g>
            <path class="cls-3" d="M433.66,1149.33s-39,42.31-58.6-14.58c0,0,10.39-22.31,23.92-11.72,0,0,8.44-8,13.07,2.91,0,0,13.59-10.65,14,6.11C426.05,1132.05,446,1129.46,433.66,1149.33Z"/>
            <polygon class="cls-4" points="395.33 1139.14 398.62 1122.82 399.38 1122.88 395.96 1139.38 395.33 1139.14"/>
            <polygon class="cls-4" points="407.52 1142.13 411.52 1125.88 412.27 1125.98 408.12 1142.38 407.52 1142.13"/>
            <polygon class="cls-4" points="417.46 1146.95 425.59 1131.92 426.26 1132.21 417.97 1147.37 417.46 1146.95"/>
          </g>
        </g>
        <path class="cls-2" d="M584,1365.15c1.65-3.54,14.65-32.47,16.65-65.6v-82.22s-95.6,10.52-141.82,0v86s2,31.22,16.3,61.78H584Z"/>
        <path class="cls-2" d="M475.08,1365.15v98.2s-23.2-5.46-31.74,7.51h50.47V1365.15Z"/>
        <path class="cls-2" d="M565.18,1365.15v98.2s-23.2-5.46-31.74,7.51h50.47V1365.15Z"/>
        <path class="cls-5" d="M518,1222l7.79,17.67S576,1237,600.22,1220l.38-2.69Z"/>
        <path class="cls-5" d="M504.12,1221.37,494,1239s-25.21-5.41-34.15-17l-1.08-5.37Z"/>
        <polyline class="cls-5" points="494.01 1238.98 493.85 1276.04 510.85 1286.73 525.81 1276.04 525.81 1239.67 518.02 1222.01 504.12 1221.38"/>
        <polygon class="cls-6" points="504.12 1221.38 496.52 1234.76 500.32 1239.67 496.52 1266.2 510.85 1286.73 509.83 1221.63 504.12 1221.38"/>
        <polygon class="cls-6" points="515.54 1221.39 523.56 1234.58 519.91 1239.6 524.53 1266.03 510.85 1286.9 509.85 1221.81 515.54 1221.39"/>
        <g>
          <polygon class="cls-7" points="611.2 1159.72 611.2 1151.69 600.22 1151.69 600.22 1193.42 611.2 1193.42 611.2 1159.72"/>
          <polygon class="cls-7" points="458.78 1160.92 458.78 1152.9 447.81 1152.9 447.81 1194.63 458.78 1194.63 458.78 1160.92"/>
          <ellipse class="cls-7" cx="464.86" cy="1118.4" rx="25.81" ry="23.49"/>
          <path class="cls-3" d="M458.78,1217.33v-56.41s-34.66-12.42,0-31.54v-31.54H600.61v32.5s41,13.39,0,27.25v59.75S518.66,1227.84,458.78,1217.33Z"/>
          <path class="cls-4" d="M458.43,1135.43s-11.83.85-10.52,11.79l2.82-.68s-2.25-6.67,7.7-9.06Z"/>
          <path class="cls-4" d="M613.43,1145.17s-.8-10.78-12.83-9.71l.72,2.57s7.35-2,9.86,7.12Z"/>
          <g>
            <ellipse cx="510.85" cy="1193.42" rx="19.07" ry="17.35"/>
            <g>
              <ellipse class="cls-8" cx="484.75" cy="1132" rx="11.34" ry="10.32"/>
              <ellipse class="cls-9" cx="484.75" cy="1132.2" rx="7.31" ry="6.65"/>
              <ellipse cx="484.75" cy="1132.2" rx="4.65" ry="4.23"/>
              <ellipse class="cls-5" cx="488.21" cy="1129.05" rx="1.19" ry="1.08"/>
            </g>
            <g>
              <ellipse class="cls-8" cx="540.45" cy="1132" rx="11.17" ry="10.17"/>
              <ellipse class="cls-9" cx="540.45" cy="1132.2" rx="7.2" ry="6.55"/>
              <ellipse cx="540.45" cy="1132.2" rx="4.58" ry="4.17"/>
              <ellipse class="cls-5" cx="543.86" cy="1129.09" rx="1.17" ry="1.06"/>
            </g>
            <path class="cls-4" d="M511.05,1145.19s-5.22-.6-6.26,5.26v7s-.87,7.29,6.26,7.61c0,0,6.1.47,7-7v-7.45S517.84,1145,511.05,1145.19Z"/>
            <path class="cls-7" d="M495.7,1113,474.77,1110s-6.89,2.25-1.16,6.55l20.93,3.07S501.86,1117.4,495.7,1113Z"/>
            <path class="cls-7" d="M549,1110.09l-20.86,2.84s-5.78,4,1.08,6.53l20.86-2.85S556.24,1112.53,549,1110.09Z"/>
            <path class="cls-10" d="M495.43,1203.6s16.34-8.42,30.84,0a16.83,16.83,0,0,1-7.13,5.43s-6,3.39-14.68.72A18.68,18.68,0,0,1,495.43,1203.6Z"/>
            <path class="cls-5" d="M493.85,1185.58h34s-4.2-9.35-17-9.51C510.85,1176.07,499.37,1175.59,493.85,1185.58Z"/>
          </g>
          <path class="cls-7" d="M588.35,1055.24H462.61s-25.63,5-23.26,25.49a30,30,0,0,0,20.41,25.49H593.1s26.58-1.3,22.07-27S588.35,1055.24,588.35,1055.24Z"/>
          <ellipse class="cls-7" cx="600.6" cy="1112.75" rx="21.37" ry="19.45"/>
        </g>
        <polygon points="458.78 1303.38 600.22 1303.38 599.17 1313.16 459.91 1313.16 458.78 1303.38"/>
        <rect class="cls-11" x="503.69" y="1303.37" width="13.5" height="9.79"/>
      </g>
    </g>
    <g>
      <rect class="cls-12" y="1000.1" width="350" height="500"/>
      <g>
        <g>
          <path class="cls-2" d="M118,1247.23l-7.81-19.62s-69.22-22.91-26.59-66.87l-27.46-23.9-15.34,53.7s-7.92,17.36,10.74,27Z"/>
          <g>
            <path class="cls-3" d="M105,1155.08s-49.41,29.49-52-30.63c0,0,16.31-18.44,26.27-4.44,0,0,10.38-5.32,11.7,6.5,0,0,16.06-6.34,11.69,9.85C102.6,1136.36,122.45,1139.53,105,1155.08Z"/>
            <polygon class="cls-4" points="71.13 1134.41 78.93 1119.7 79.63 1119.98 71.66 1134.81 71.13 1134.41"/>
            <polygon class="cls-4" points="81.96 1140.73 90.42 1126.31 91.11 1126.62 82.47 1141.15 81.96 1140.73"/>
            <polygon class="cls-4" points="90.13 1148.2 102.19 1136.09 102.75 1136.57 90.49 1148.73 90.13 1148.2"/>
          </g>
        </g>
        <g>
          <path class="cls-2" d="M245,1246.61l5.69-19s68.17-27.8,24.65-67l24.71-24.3,17.61,47.3s11.82,18.75-8.18,27.23Z"/>
          <g>
            <path class="cls-3" d="M264.86,1161.94s43.29,16.81,48-37.25c0,0-4.82-12-23.13-6.94,0,0-7.62,1.47-3.19,4.84,0,0-15.3-4.88-12,7.19,0,0-16.72-4.43-9.27,9.18C265.24,1139,240.45,1142.15,264.86,1161.94Z"/>
            <polygon class="cls-4" points="275.41 1152.16 264.85 1139.07 265.46 1138.65 276.05 1151.93 275.41 1152.16"/>
            <polygon class="cls-4" points="284.63 1142.89 274.07 1129.8 274.69 1129.37 285.28 1142.65 284.63 1142.89"/>
            <polygon class="cls-4" points="298.08 1134.88 286.3 1122.69 286.87 1122.21 298.69 1134.59 298.08 1134.88"/>
          </g>
        </g>
        <path class="cls-2" d="M234.8,1374.92c1.65-3.54,14.65-32.47,16.65-65.6V1227.1s-95.6,10.52-141.82,0v86s2,31.22,16.3,61.78H234.8Z"/>
        <path class="cls-2" d="M125.92,1374.92v98.2s-23.2-5.46-31.74,7.51h50.47V1374.92Z"/>
        <path class="cls-2" d="M216,1374.92v98.2s-23.2-5.46-31.74,7.51h50.47V1374.92Z"/>
        <path class="cls-5" d="M168.86,1231.77l7.79,17.67s50.15-2.7,74.41-19.65l.38-2.69Z"/>
        <path class="cls-5" d="M155,1231.14l-10.11,17.61s-25.21-5.41-34.15-17l-1.08-5.37Z"/>
        <polyline class="cls-5" points="144.85 1248.75 144.69 1285.8 161.69 1296.5 176.65 1285.8 176.65 1249.44 168.86 1231.77 154.96 1231.14"/>
        <polygon class="cls-6" points="154.96 1231.14 147.36 1244.52 151.16 1249.44 147.36 1275.97 161.69 1296.5 160.67 1231.4 154.96 1231.14"/>
        <polygon class="cls-6" points="166.38 1231.16 174.4 1244.34 170.75 1249.36 175.37 1275.79 161.69 1296.67 160.69 1231.57 166.38 1231.16"/>
        <g>
          <polygon class="cls-7" points="262.04 1169.49 262.04 1161.46 251.06 1161.46 251.06 1203.19 262.04 1203.19 262.04 1169.49"/>
          <polygon class="cls-7" points="109.62 1170.69 109.62 1162.67 98.65 1162.67 98.65 1204.39 109.62 1204.39 109.62 1170.69"/>
          <ellipse class="cls-7" cx="115.7" cy="1128.17" rx="25.81" ry="23.49"/>
          <path class="cls-3" d="M109.62,1227.1v-56.41s-34.66-12.42,0-31.54v-31.54H251.45v32.5s41,13.39,0,27.25v59.75S169.5,1237.61,109.62,1227.1Z"/>
          <path class="cls-4" d="M109.27,1145.2s-11.82.85-10.52,11.79l2.82-.68s-2.25-6.67,7.7-9.06Z"/>
          <path class="cls-4" d="M264.27,1154.94s-.8-10.78-12.83-9.71l.72,2.57s7.35-2,9.86,7.12Z"/>
          <g>
            <ellipse cx="161.69" cy="1203.19" rx="19.07" ry="17.35"/>
            <g>
              <ellipse class="cls-8" cx="135.59" cy="1141.77" rx="11.34" ry="10.32"/>
              <ellipse class="cls-9" cx="135.59" cy="1141.97" rx="7.31" ry="6.65"/>
              <ellipse cx="135.59" cy="1141.97" rx="4.65" ry="4.23"/>
              <ellipse class="cls-5" cx="139.05" cy="1138.82" rx="1.19" ry="1.08"/>
            </g>
            <g>
              <ellipse class="cls-8" cx="191.29" cy="1141.77" rx="11.17" ry="10.17"/>
              <ellipse class="cls-9" cx="191.29" cy="1141.97" rx="7.2" ry="6.55"/>
              <ellipse cx="191.29" cy="1141.97" rx="4.58" ry="4.17"/>
              <ellipse class="cls-5" cx="194.7" cy="1138.86" rx="1.17" ry="1.06"/>
            </g>
            <path class="cls-4" d="M161.89,1155s-5.22-.6-6.26,5.26v7s-.87,7.29,6.26,7.61c0,0,6.1.47,7-7v-7.45S168.68,1154.76,161.89,1155Z"/>
            <path class="cls-7" d="M146.54,1122.8l-20.93-3.07s-6.89,2.25-1.16,6.55l20.93,3.07S152.7,1127.17,146.54,1122.8Z"/>
            <path class="cls-7" d="M199.79,1119.86l-20.86,2.84s-5.78,4,1.08,6.53l20.86-2.85S207.08,1122.3,199.79,1119.86Z"/>
            <path class="cls-10" d="M146.27,1213.37s16.34-8.42,30.84,0a17,17,0,0,1-7.13,5.43s-6,3.39-14.68.72A18.73,18.73,0,0,1,146.27,1213.37Z"/>
            <path class="cls-5" d="M144.69,1195.35h34s-4.2-9.35-17-9.51C161.69,1185.84,150.21,1185.36,144.69,1195.35Z"/>
          </g>
          <path class="cls-7" d="M239.19,1065H113.45s-25.63,5-23.26,25.49A29.92,29.92,0,0,0,110.6,1116H243.94s26.58-1.3,22.07-27S239.19,1065,239.19,1065Z"/>
          <ellipse class="cls-7" cx="251.44" cy="1122.52" rx="21.37" ry="19.45"/>
        </g>
        <polygon points="109.62 1313.14 251.06 1313.14 250.01 1322.93 110.75 1322.93 109.62 1313.14"/>
        <rect class="cls-11" x="154.53" y="1313.14" width="13.5" height="9.79"/>
      </g>
    </g>
  </g>
  <g id="humør">
    <g>
      <rect class="cls-13" x="349.25" y="1500.1" width="350" height="500"/>
      <g>
        <path class="cls-2" d="M583.34,1874.21c1.65-3.54,14.65-32.47,16.65-65.6v-82.22s-95.6,10.52-141.82,0v86s2,31.22,16.3,61.78H583.34Z"/>
        <path class="cls-2" d="M474.46,1874.21v98.2s-23.2-5.46-31.74,7.51h50.47V1874.21Z"/>
        <path class="cls-2" d="M564.56,1874.21v98.2s-23.2-5.46-31.74,7.51h50.47V1874.21Z"/>
        <path class="cls-5" d="M517.4,1731.06l7.79,17.67s50.15-2.7,74.41-19.65l.38-2.69Z"/>
        <path class="cls-5" d="M503.5,1730.43,493.39,1748s-25.21-5.41-34.15-17l-1.08-5.37Z"/>
        <polyline class="cls-5" points="493.39 1748.04 493.23 1785.09 510.23 1795.79 525.19 1785.09 525.19 1748.73 517.4 1731.06 503.5 1730.43"/>
        <polygon class="cls-6" points="503.5 1730.43 495.9 1743.81 499.7 1748.73 495.9 1775.26 510.23 1795.79 509.21 1730.69 503.5 1730.43"/>
        <polygon class="cls-6" points="514.92 1730.45 522.94 1743.63 519.29 1748.65 523.91 1775.08 510.23 1795.96 509.23 1730.86 514.92 1730.45"/>
        <polygon class="cls-7" points="610.58 1668.78 610.58 1660.75 599.6 1660.75 599.6 1702.48 610.58 1702.48 610.58 1668.78"/>
        <polygon class="cls-7" points="458.16 1669.98 458.16 1661.96 447.19 1661.96 447.19 1703.68 458.16 1703.68 458.16 1669.98"/>
        <ellipse class="cls-7" cx="464.24" cy="1627.46" rx="25.81" ry="23.49"/>
        <path class="cls-3" d="M458.16,1726.39V1670s-34.66-12.42,0-31.54V1606.9H600v32.5s41,13.39,0,27.25v59.75S518,1736.9,458.16,1726.39Z"/>
        <path class="cls-4" d="M457.81,1644.49s-11.83.85-10.52,11.79l2.82-.68s-2.25-6.67,7.7-9.06Z"/>
        <path class="cls-4" d="M612.81,1654.23s-.8-10.78-12.83-9.71l.72,2.57s7.35-2,9.86,7.12Z"/>
        <g>
          <ellipse class="cls-8" cx="484.13" cy="1641.06" rx="11.34" ry="10.32"/>
          <ellipse class="cls-9" cx="484.13" cy="1641.26" rx="7.31" ry="6.65"/>
          <ellipse cx="484.13" cy="1641.26" rx="4.65" ry="4.23"/>
          <ellipse class="cls-5" cx="487.59" cy="1638.11" rx="1.19" ry="1.08"/>
        </g>
        <g>
          <ellipse class="cls-8" cx="539.83" cy="1641.06" rx="11.17" ry="10.17"/>
          <ellipse class="cls-9" cx="539.83" cy="1641.26" rx="7.2" ry="6.55"/>
          <ellipse cx="539.83" cy="1641.26" rx="4.58" ry="4.17"/>
          <ellipse class="cls-5" cx="543.24" cy="1638.15" rx="1.17" ry="1.06"/>
        </g>
        <path class="cls-4" d="M510.43,1654.25s-5.22-.6-6.26,5.26v7s-.87,7.29,6.26,7.61c0,0,6.1.47,7-7v-7.45S517.22,1654.05,510.43,1654.25Z"/>
        <path class="cls-7" d="M495.08,1622.09,474.15,1619s-6.89,2.25-1.16,6.55l20.93,3.07S501.24,1626.46,495.08,1622.09Z"/>
        <path class="cls-7" d="M548.33,1619.15,527.47,1622s-5.78,4,1.08,6.53l20.86-2.85S555.62,1621.59,548.33,1619.15Z"/>
        <g>
          <ellipse cx="511.08" cy="1702.08" rx="12.91" ry="11.75"/>
          <path class="cls-10" d="M500.64,1709s11.06-5.7,20.88,0a11.52,11.52,0,0,1-4.83,3.67,13.31,13.31,0,0,1-9.94.49A12.73,12.73,0,0,1,500.64,1709Z"/>
          <path class="cls-5" d="M499.56,1696.77h23s-2.84-6.33-11.51-6.44C511.08,1690.33,503.3,1690,499.56,1696.77Z"/>
        </g>
        <path class="cls-7" d="M587.73,1564.3H462s-25.63,5-23.26,25.49a29.94,29.94,0,0,0,20.41,25.49H592.48s26.58-1.3,22.07-27S587.73,1564.3,587.73,1564.3Z"/>
        <ellipse class="cls-7" cx="599.98" cy="1621.81" rx="21.37" ry="19.45"/>
        <polygon points="458.16 1812.43 599.6 1812.43 598.55 1822.22 459.29 1822.22 458.16 1812.43"/>
        <rect class="cls-11" x="503.07" y="1812.43" width="13.5" height="9.79"/>
        <g>
          <path class="cls-2" d="M458.49,1726.39v19.8s-57.31,46.22-4.36,71.31l-16.68,30.4L407,1807.59s-16.68-14.52,0-28.39Z"/>
          <g>
            <path class="cls-3" d="M463.76,1813.22s-46.29-3.66-35.22,49.46c0,0,8,10.07,24.15,0,0,0,6.88-3.59,1.67-5.55,0,0,16.05.28,9.4-10.33,0,0,17.29-.56,6.25-11.45C470,1835.35,492.81,1825.17,463.76,1813.22Z"/>
            <polygon class="cls-4" points="456.47 1825.62 470.35 1835.13 469.88 1835.71 455.92 1826.03 456.47 1825.62"/>
            <polygon class="cls-4" points="450.3 1837.16 464.18 1846.66 463.71 1847.24 449.75 1837.57 450.3 1837.16"/>
            <polygon class="cls-4" points="439.73 1848.69 454.51 1856.98 454.11 1857.6 439.22 1849.15 439.73 1848.69"/>
          </g>
        </g>
        <g>
          <path class="cls-2" d="M599.6,1726.39v21.13s55.86,46.87,0,72l16.69,32.35,34.09-44.24s13.79-13.2,0-29.05Z"/>
          <g>
            <path class="cls-3" d="M577.61,1816.81s56.81-9.14,37,47.7c0,0-22,11.1-26-5.59,0,0-11.62,1.11-8.48-10.36,0,0-17.26,0-7.22-13.47C572.9,1835.09,555.64,1824.81,577.61,1816.81Z"/>
            <polygon class="cls-4" points="601.42 1848.52 588.74 1859.32 588.19 1858.8 601.08 1847.96 601.42 1848.52"/>
            <polygon class="cls-4" points="593.69 1838.65 580.5 1848.93 579.98 1848.39 593.37 1838.07 593.69 1838.65"/>
            <polygon class="cls-4" points="588.87 1828.7 573.19 1835.49 572.84 1834.84 588.72 1828.06 588.87 1828.7"/>
          </g>
        </g>
      </g>
    </g>
    <g>
      <rect class="cls-14" y="1500.1" width="350" height="500"/>
      <g>
        <path class="cls-2" d="M234.66,1874.22c1.65-3.54,14.65-32.47,16.65-65.6V1726.4s-95.6,10.52-141.82,0v86s2,31.22,16.3,61.78H234.66Z"/>
        <path class="cls-2" d="M125.78,1874.22v98.2s-23.2-5.46-31.74,7.51h50.47V1874.22Z"/>
        <path class="cls-2" d="M215.88,1874.22v98.2s-23.2-5.46-31.74,7.51h50.47V1874.22Z"/>
        <path class="cls-5" d="M168.72,1731.07l7.79,17.67s50.15-2.7,74.41-19.65l.38-2.69Z"/>
        <path class="cls-5" d="M154.82,1730.44l-10.11,17.61s-25.21-5.41-34.15-17l-1.08-5.37Z"/>
        <polyline class="cls-5" points="144.71 1748.05 144.55 1785.1 161.55 1795.8 176.51 1785.1 176.51 1748.74 168.72 1731.07 154.82 1730.44"/>
        <polygon class="cls-6" points="154.82 1730.44 147.22 1743.82 151.02 1748.74 147.22 1775.27 161.55 1795.8 160.53 1730.7 154.82 1730.44"/>
        <polygon class="cls-6" points="166.24 1730.46 174.26 1743.64 170.61 1748.66 175.23 1775.09 161.55 1795.97 160.55 1730.87 166.24 1730.46"/>
        <polygon class="cls-7" points="261.9 1668.79 261.9 1660.76 250.92 1660.76 250.92 1702.49 261.9 1702.49 261.9 1668.79"/>
        <polygon class="cls-7" points="109.48 1669.99 109.48 1661.97 98.51 1661.97 98.51 1703.69 109.48 1703.69 109.48 1669.99"/>
        <ellipse class="cls-7" cx="115.56" cy="1627.47" rx="25.81" ry="23.49"/>
        <path class="cls-3" d="M109.48,1726.4V1670s-34.66-12.42,0-31.54v-31.54H251.31v32.5s41,13.39,0,27.25v59.75S169.36,1736.91,109.48,1726.4Z"/>
        <path class="cls-4" d="M109.13,1644.5s-11.82.85-10.52,11.79l2.82-.68s-2.25-6.67,7.7-9.06Z"/>
        <path class="cls-4" d="M264.13,1654.24s-.8-10.78-12.83-9.71l.72,2.57s7.35-2,9.86,7.12Z"/>
        <g>
          <ellipse class="cls-8" cx="135.45" cy="1641.07" rx="11.34" ry="10.32"/>
          <ellipse class="cls-9" cx="135.45" cy="1641.27" rx="7.31" ry="6.65"/>
          <ellipse cx="135.45" cy="1641.27" rx="4.65" ry="4.23"/>
          <ellipse class="cls-5" cx="138.91" cy="1638.12" rx="1.19" ry="1.08"/>
        </g>
        <g>
          <ellipse class="cls-8" cx="191.15" cy="1641.07" rx="11.17" ry="10.17"/>
          <ellipse class="cls-9" cx="191.15" cy="1641.27" rx="7.2" ry="6.55"/>
          <ellipse cx="191.15" cy="1641.27" rx="4.58" ry="4.17"/>
          <ellipse class="cls-5" cx="194.56" cy="1638.16" rx="1.17" ry="1.06"/>
        </g>
        <path class="cls-4" d="M161.75,1654.26s-5.22-.6-6.26,5.26v7s-.87,7.29,6.26,7.61c0,0,6.1.47,7-7v-7.45S168.54,1654.06,161.75,1654.26Z"/>
        <path class="cls-7" d="M146.4,1622.1,125.47,1619s-6.89,2.25-1.16,6.55l20.93,3.07S152.56,1626.47,146.4,1622.1Z"/>
        <path class="cls-7" d="M199.65,1619.16,178.79,1622s-5.78,4,1.08,6.53l20.86-2.85S206.94,1621.6,199.65,1619.16Z"/>
        <path class="cls-7" d="M239.05,1564.31H113.31s-25.63,5-23.26,25.49a29.94,29.94,0,0,0,20.41,25.49H243.8s26.58-1.3,22.07-27S239.05,1564.31,239.05,1564.31Z"/>
        <ellipse class="cls-7" cx="251.3" cy="1621.82" rx="21.37" ry="19.45"/>
        <polygon points="109.48 1812.44 250.92 1812.44 249.87 1822.23 110.61 1822.23 109.48 1812.44"/>
        <rect class="cls-11" x="154.39" y="1812.44" width="13.5" height="9.79"/>
        <g>
          <path class="cls-2" d="M109.81,1726.4v19.8s-57.31,46.22-4.36,71.31l-16.68,30.4L58.31,1807.6s-16.68-14.52,0-28.39Z"/>
          <g>
            <path class="cls-3" d="M115.08,1813.23s-46.29-3.66-35.22,49.46c0,0,8,10.07,24.15,0,0,0,6.88-3.59,1.67-5.55,0,0,16,.28,9.4-10.33,0,0,17.29-.56,6.25-11.45C121.31,1835.36,144.13,1825.18,115.08,1813.23Z"/>
            <polygon class="cls-4" points="107.79 1825.63 121.67 1835.14 121.2 1835.72 107.24 1826.04 107.79 1825.63"/>
            <polygon class="cls-4" points="101.62 1837.17 115.5 1846.67 115.03 1847.25 101.07 1837.58 101.62 1837.17"/>
            <polygon class="cls-4" points="91.05 1848.7 105.83 1856.99 105.42 1857.61 90.54 1849.16 91.05 1848.7"/>
          </g>
        </g>
        <g>
          <path class="cls-2" d="M250.92,1726.4v21.13s55.86,46.87,0,72l16.69,32.35,34.09-44.24s13.79-13.2,0-29.05Z"/>
          <g>
            <path class="cls-3" d="M228.93,1816.82s56.81-9.14,37,47.7c0,0-22,11.1-26-5.59,0,0-11.62,1.11-8.48-10.36,0,0-17.26,0-7.22-13.47C224.22,1835.1,207,1824.82,228.93,1816.82Z"/>
            <polygon class="cls-4" points="252.74 1848.53 240.06 1859.33 239.51 1858.81 252.4 1847.97 252.74 1848.53"/>
            <polygon class="cls-4" points="245.01 1838.66 231.82 1848.94 231.3 1848.4 244.69 1838.08 245.01 1838.66"/>
            <polygon class="cls-4" points="240.19 1828.71 224.5 1835.5 224.15 1834.85 240.04 1828.07 240.19 1828.71"/>
          </g>
        </g>
        <ellipse class="cls-10" cx="171.31" cy="1696.41" rx="29" ry="4.98" transform="translate(-327.95 66.1) rotate(-11.26)"/>
      </g>
    </g>
  </g>
  <g id="normal_position" data-name="normal position">
    <g>
      <rect class="cls-15" x="-0.6" y="500.61" width="350" height="500"/>
      <g id="normal_position-2" data-name="normal position">
        <g>
          <path class="cls-2" d="M233.1,874.46c1.65-3.54,14.65-32.47,16.65-65.6V726.64s-95.6,10.52-141.82,0v86s2,31.22,16.3,61.78H233.1Z"/>
          <path class="cls-2" d="M124.22,874.46v98.2s-23.2-5.46-31.74,7.51H143V874.46Z"/>
          <path class="cls-2" d="M214.32,874.46v98.2s-23.2-5.46-31.74,7.51h50.47V874.46Z"/>
          <path class="cls-5" d="M167.16,731.31,175,749s50.15-2.7,74.41-19.65l.38-2.69Z"/>
          <path class="cls-5" d="M153.26,730.68l-10.11,17.61s-25.21-5.41-34.15-17l-1.08-5.37Z"/>
          <polyline class="cls-5" points="143.15 748.29 142.99 785.34 159.99 796.04 174.95 785.34 174.95 748.98 167.16 731.31 153.26 730.68"/>
          <polygon class="cls-6" points="153.26 730.68 145.66 744.06 149.46 748.98 145.66 775.51 159.99 796.04 158.97 730.94 153.26 730.68"/>
          <polygon class="cls-6" points="164.68 730.7 172.7 743.88 169.05 748.9 173.67 775.33 159.99 796.21 158.99 731.11 164.68 730.7"/>
          <g>
            <polygon class="cls-7" points="260.34 669.03 260.34 661 249.36 661 249.36 702.73 260.34 702.73 260.34 669.03"/>
            <polygon class="cls-7" points="107.92 670.23 107.92 662.21 96.95 662.21 96.95 703.93 107.92 703.93 107.92 670.23"/>
            <ellipse class="cls-7" cx="114" cy="627.71" rx="25.81" ry="23.49"/>
            <path class="cls-3" d="M107.92,726.64V670.23s-34.66-12.42,0-31.54V607.15H249.75v32.5s41,13.39,0,27.25v59.75S167.8,737.15,107.92,726.64Z"/>
            <path class="cls-4" d="M107.57,644.74s-11.82.85-10.52,11.79l2.82-.68s-2.25-6.67,7.7-9.06Z"/>
            <path class="cls-4" d="M262.57,654.48s-.8-10.78-12.83-9.71l.72,2.57s7.35-2,9.86,7.12Z"/>
            <g>
              <ellipse cx="159.99" cy="702.73" rx="19.07" ry="17.35"/>
              <g>
                <ellipse class="cls-8" cx="133.89" cy="641.31" rx="11.34" ry="10.32"/>
                <ellipse class="cls-9" cx="133.89" cy="641.51" rx="7.31" ry="6.65"/>
                <ellipse cx="133.89" cy="641.51" rx="4.65" ry="4.23"/>
                <ellipse class="cls-5" cx="137.35" cy="638.36" rx="1.19" ry="1.08"/>
              </g>
              <g>
                <ellipse class="cls-8" cx="189.59" cy="641.31" rx="11.17" ry="10.17"/>
                <ellipse class="cls-9" cx="189.59" cy="641.51" rx="7.2" ry="6.55"/>
                <ellipse cx="189.59" cy="641.51" rx="4.58" ry="4.17"/>
                <ellipse class="cls-5" cx="193" cy="638.4" rx="1.17" ry="1.06"/>
              </g>
              <path class="cls-4" d="M160.19,654.5s-5.22-.6-6.26,5.26v7s-.87,7.29,6.26,7.61c0,0,6.1.47,7-7v-7.45S167,654.3,160.19,654.5Z"/>
              <path class="cls-7" d="M144.84,622.34l-20.93-3.07s-6.89,2.25-1.16,6.55l20.93,3.07S151,626.71,144.84,622.34Z"/>
              <path class="cls-7" d="M198.09,619.4l-20.86,2.84s-5.78,4,1.08,6.53l20.86-2.85S205.38,621.84,198.09,619.4Z"/>
              <path class="cls-10" d="M144.57,712.91s16.34-8.42,30.84,0a16.91,16.91,0,0,1-7.13,5.43s-6,3.39-14.68.72A18.82,18.82,0,0,1,144.57,712.91Z"/>
              <path class="cls-5" d="M143,694.89h34s-4.2-9.35-17-9.51C160,685.38,148.51,684.9,143,694.89Z"/>
            </g>
            <path class="cls-7" d="M237.49,564.55H111.75s-25.63,5-23.26,25.49a30,30,0,0,0,20.41,25.49H242.24s26.58-1.3,22.07-27S237.49,564.55,237.49,564.55Z"/>
            <ellipse class="cls-7" cx="249.74" cy="622.06" rx="21.37" ry="19.45"/>
          </g>
          <polygon points="107.92 812.68 249.36 812.68 248.31 822.47 109.05 822.47 107.92 812.68"/>
          <rect class="cls-11" x="152.83" y="812.68" width="13.5" height="9.79"/>
          <g>
            <path class="cls-2" d="M108.25,726.64v19.8s-57.31,46.22-4.36,71.31l-16.68,30.4L56.75,807.84s-16.68-14.52,0-28.39Z"/>
            <g>
              <path class="cls-3" d="M113.52,813.47s-46.29-3.66-35.22,49.46c0,0,8,10.07,24.15,0,0,0,6.88-3.59,1.67-5.55,0,0,16,.28,9.4-10.33,0,0,17.29-.56,6.25-11.45C119.75,835.6,142.57,825.42,113.52,813.47Z"/>
              <polygon class="cls-4" points="106.23 825.87 120.11 835.38 119.64 835.96 105.68 826.28 106.23 825.87"/>
              <polygon class="cls-4" points="100.06 837.41 113.94 846.91 113.47 847.49 99.51 837.82 100.06 837.41"/>
              <polygon class="cls-4" points="89.49 848.94 104.27 857.23 103.86 857.85 88.98 849.4 89.49 848.94"/>
            </g>
          </g>
          <g>
            <path class="cls-2" d="M249.36,726.64v21.13s55.86,46.87,0,72l16.69,32.35,34.09-44.24s13.79-13.2,0-29Z"/>
            <g>
              <path class="cls-3" d="M227.37,817.06s56.81-9.14,37,47.7c0,0-22,11.1-26-5.59,0,0-11.62,1.11-8.48-10.36,0,0-17.26,0-7.22-13.47C222.66,835.34,205.4,825.06,227.37,817.06Z"/>
              <polygon class="cls-4" points="251.18 848.77 238.5 859.57 237.95 859.05 250.84 848.21 251.18 848.77"/>
              <polygon class="cls-4" points="243.45 838.9 230.26 849.18 229.74 848.64 243.13 838.32 243.45 838.9"/>
              <polygon class="cls-4" points="238.63 828.95 222.94 835.74 222.59 835.09 238.48 828.31 238.63 828.95"/>
            </g>
          </g>
        </g>
      </g>
    </g>
  </g>
  <g id="gang">
    <g>
      <rect class="cls-16" x="1399.5" y="0.5" width="350" height="500"/>
      <g id="trin_5" data-name="trin 5">
        <g>
          <path class="cls-2" d="M1626.38,374.47C1628,370.93,1641,342,1643,308.87V226.65s-95.6,10.52-141.82,0v86s2,31.22,16.3,61.78h108.87Z"/>
          <path class="cls-5" d="M1560.44,231.32l7.79,17.67s50.15-2.7,74.41-19.65l.38-2.69Z"/>
          <path class="cls-5" d="M1546.54,230.69l-10.11,17.61s-25.21-5.41-34.15-17l-1.08-5.37Z"/>
          <polyline class="cls-5" points="1536.43 248.3 1536.27 285.35 1553.27 296.05 1568.23 285.35 1568.23 248.99 1560.44 231.32 1546.54 230.69"/>
          <polygon class="cls-6" points="1546.54 230.69 1538.94 244.07 1542.74 248.99 1538.94 275.52 1553.27 296.05 1552.25 230.95 1546.54 230.69"/>
          <polygon class="cls-6" points="1557.96 230.71 1565.98 243.89 1562.33 248.91 1566.95 275.34 1553.27 296.22 1552.27 231.12 1557.96 230.71"/>
          <g>
            <polygon class="cls-7" points="1653.62 169.04 1653.62 161.01 1642.64 161.01 1642.64 202.74 1653.62 202.74 1653.62 169.04"/>
            <polygon class="cls-7" points="1501.2 170.24 1501.2 162.22 1490.23 162.22 1490.23 203.94 1501.2 203.94 1501.2 170.24"/>
            <ellipse class="cls-7" cx="1507.28" cy="127.72" rx="25.81" ry="23.49"/>
            <path class="cls-3" d="M1501.2,226.65V170.24s-34.66-12.42,0-31.54V107.16H1643v32.5s41,13.39,0,27.25v59.75S1561.08,237.16,1501.2,226.65Z"/>
            <path class="cls-4" d="M1500.85,144.75s-11.82.85-10.52,11.79l2.82-.68s-2.25-6.67,7.7-9.06Z"/>
            <path class="cls-4" d="M1655.85,154.49s-.8-10.78-12.83-9.71l.72,2.57s7.35-2,9.86,7.12Z"/>
            <g>
              <ellipse cx="1553.27" cy="202.74" rx="19.07" ry="17.35"/>
              <g>
                <ellipse class="cls-8" cx="1527.17" cy="141.32" rx="11.34" ry="10.32"/>
                <ellipse class="cls-9" cx="1527.17" cy="141.52" rx="7.31" ry="6.65"/>
                <ellipse cx="1527.17" cy="141.52" rx="4.65" ry="4.23"/>
                <ellipse class="cls-5" cx="1530.63" cy="138.37" rx="1.19" ry="1.08"/>
              </g>
              <g>
                <ellipse class="cls-8" cx="1582.87" cy="141.32" rx="11.17" ry="10.17"/>
                <ellipse class="cls-9" cx="1582.87" cy="141.52" rx="7.2" ry="6.55"/>
                <ellipse cx="1582.87" cy="141.52" rx="4.58" ry="4.17"/>
                <ellipse class="cls-5" cx="1586.28" cy="138.41" rx="1.17" ry="1.06"/>
              </g>
              <path class="cls-4" d="M1553.47,154.51s-5.22-.6-6.26,5.26v7s-.87,7.29,6.26,7.61c0,0,6.1.47,7-7v-7.45S1560.26,154.31,1553.47,154.51Z"/>
              <path class="cls-7" d="M1538.12,122.35l-20.93-3.07s-6.89,2.25-1.16,6.55L1537,128.9S1544.28,126.72,1538.12,122.35Z"/>
              <path class="cls-7" d="M1591.37,119.41l-20.86,2.84s-5.78,4,1.08,6.53l20.86-2.85S1598.66,121.85,1591.37,119.41Z"/>
              <path class="cls-10" d="M1537.85,212.92s16.34-8.42,30.84,0a17,17,0,0,1-7.13,5.43s-6,3.39-14.68.72A18.77,18.77,0,0,1,1537.85,212.92Z"/>
              <path class="cls-5" d="M1536.27,194.9h34s-4.2-9.35-17-9.51C1553.27,185.39,1541.79,184.91,1536.27,194.9Z"/>
            </g>
            <path class="cls-7" d="M1630.77,64.56H1505s-25.63,5-23.26,25.49a29.94,29.94,0,0,0,20.41,25.49h133.34s26.58-1.3,22.07-27S1630.77,64.56,1630.77,64.56Z"/>
            <ellipse class="cls-7" cx="1643.02" cy="122.07" rx="21.37" ry="19.45"/>
          </g>
          <polygon points="1501.2 312.69 1642.64 312.69 1641.59 322.48 1502.33 322.48 1501.2 312.69"/>
          <rect class="cls-11" x="1546.11" y="312.69" width="13.5" height="9.79"/>
          <g>
            <path class="cls-2" d="M1501.53,226.65v19.8s-57.31,46.22-4.36,71.31l-16.68,30.4L1450,307.85s-16.68-14.52,0-28.39Z"/>
            <g>
              <path class="cls-3" d="M1506.8,313.48s-46.29-3.66-35.22,49.46c0,0,8,10.07,24.15,0,0,0,6.88-3.59,1.67-5.55,0,0,16,.28,9.4-10.33,0,0,17.29-.56,6.25-11.45C1513,335.61,1535.85,325.43,1506.8,313.48Z"/>
              <polygon class="cls-4" points="1499.51 325.88 1513.39 335.39 1512.92 335.97 1498.96 326.29 1499.51 325.88"/>
              <polygon class="cls-4" points="1493.34 337.42 1507.22 346.92 1506.75 347.5 1492.79 337.83 1493.34 337.42"/>
              <polygon class="cls-4" points="1482.77 348.95 1497.55 357.24 1497.14 357.86 1482.26 349.41 1482.77 348.95"/>
            </g>
          </g>
          <g>
            <path class="cls-2" d="M1642.64,226.65v21.13s55.86,46.87,0,72l16.69,32.35,34.09-44.24s13.79-13.2,0-29.05Z"/>
            <g>
              <path class="cls-3" d="M1620.65,317.07s56.81-9.14,37,47.7c0,0-22,11.1-26-5.59,0,0-11.62,1.11-8.48-10.36,0,0-17.26,0-7.22-13.47C1615.94,335.35,1598.68,325.07,1620.65,317.07Z"/>
              <polygon class="cls-4" points="1644.46 348.78 1631.78 359.58 1631.23 359.06 1644.12 348.22 1644.46 348.78"/>
              <polygon class="cls-4" points="1636.73 338.91 1623.54 349.19 1623.02 348.65 1636.41 338.33 1636.73 338.91"/>
              <polygon class="cls-4" points="1631.91 328.96 1616.22 335.75 1615.87 335.1 1631.76 328.32 1631.91 328.96"/>
            </g>
          </g>
          <path class="cls-2" d="M1517,374.16l9,50,12.91,45.37s-13.91.63-16.91,10.63h33.3l4.7-5-19-54-5-47Z"/>
          <path class="cls-2" d="M1606.35,374.47,1602,424.16l2,47a16.1,16.1,0,0,0-19-2l-4,3,35,8-1-53,11-53Z"/>
        </g>
      </g>
    </g>
    <g>
      <rect class="cls-17" x="1049.61" y="0.35" width="350" height="500"/>
      <g id="trin_4" data-name="trin 4">
        <g>
          <path class="cls-2" d="M1283.05,375c1.65-3.54,14.65-32.47,16.65-65.6V227.17s-95.6,10.52-141.82,0v86s2,31.22,16.3,61.78h108.87Z"/>
          <path class="cls-5" d="M1217.11,231.84l7.79,17.67s50.15-2.7,74.41-19.65l.38-2.69Z"/>
          <path class="cls-5" d="M1203.21,231.21l-10.11,17.61s-25.21-5.41-34.15-17l-1.08-5.37Z"/>
          <polyline class="cls-5" points="1193.1 248.82 1192.94 285.88 1209.94 296.57 1224.9 285.88 1224.9 249.51 1217.11 231.84 1203.21 231.22"/>
          <polygon class="cls-6" points="1203.21 231.22 1195.61 244.59 1199.41 249.51 1195.61 276.05 1209.94 296.57 1208.92 231.47 1203.21 231.22"/>
          <polygon class="cls-6" points="1214.63 231.24 1222.65 244.41 1219 249.44 1223.62 275.87 1209.94 296.75 1208.94 231.65 1214.63 231.24"/>
          <g>
            <polygon class="cls-7" points="1310.29 169.56 1310.29 161.53 1299.31 161.53 1299.31 203.26 1310.29 203.26 1310.29 169.56"/>
            <polygon class="cls-7" points="1157.87 170.76 1157.87 162.75 1146.9 162.75 1146.9 204.47 1157.87 204.47 1157.87 170.76"/>
            <ellipse class="cls-7" cx="1163.95" cy="128.24" rx="25.81" ry="23.49"/>
            <path class="cls-3" d="M1157.87,227.17V170.76s-34.66-12.42,0-31.54V107.68H1299.7v32.5s41,13.39,0,27.25v59.75S1217.75,237.68,1157.87,227.17Z"/>
            <path class="cls-4" d="M1157.52,145.27s-11.83.85-10.52,11.79l2.82-.68s-2.25-6.67,7.7-9.06Z"/>
            <path class="cls-4" d="M1312.52,155s-.8-10.78-12.83-9.71l.72,2.57s7.35-2,9.86,7.12Z"/>
            <g>
              <ellipse cx="1209.94" cy="203.26" rx="19.07" ry="17.35"/>
              <g>
                <ellipse class="cls-8" cx="1183.84" cy="141.84" rx="11.34" ry="10.32"/>
                <ellipse class="cls-9" cx="1183.84" cy="142.04" rx="7.31" ry="6.65"/>
                <ellipse cx="1183.84" cy="142.04" rx="4.65" ry="4.23"/>
                <ellipse class="cls-5" cx="1187.3" cy="138.89" rx="1.19" ry="1.08"/>
              </g>
              <g>
                <ellipse class="cls-8" cx="1239.54" cy="141.84" rx="11.17" ry="10.17"/>
                <ellipse class="cls-9" cx="1239.54" cy="142.04" rx="7.2" ry="6.55"/>
                <ellipse cx="1239.54" cy="142.04" rx="4.58" ry="4.17"/>
                <ellipse class="cls-5" cx="1242.95" cy="138.93" rx="1.17" ry="1.06"/>
              </g>
              <path class="cls-4" d="M1210.14,155s-5.22-.6-6.26,5.26v7s-.87,7.29,6.26,7.61c0,0,6.1.47,7-7v-7.45S1216.93,154.83,1210.14,155Z"/>
              <path class="cls-7" d="M1194.79,122.87l-20.93-3.07s-6.89,2.25-1.16,6.55l20.93,3.07S1201,127.24,1194.79,122.87Z"/>
              <path class="cls-7" d="M1248,119.93l-20.86,2.84s-5.78,4,1.08,6.53l20.86-2.85S1255.33,122.37,1248,119.93Z"/>
              <path class="cls-10" d="M1194.52,213.44s16.34-8.42,30.84,0a16.89,16.89,0,0,1-7.13,5.43s-6,3.39-14.68.72A18.59,18.59,0,0,1,1194.52,213.44Z"/>
              <path class="cls-5" d="M1192.94,195.42h34s-4.2-9.35-17-9.51C1209.94,185.91,1198.46,185.43,1192.94,195.42Z"/>
            </g>
            <path class="cls-7" d="M1287.44,65.08H1161.7s-25.63,5-23.26,25.49a29.92,29.92,0,0,0,20.41,25.49h133.34s26.58-1.3,22.07-27S1287.44,65.08,1287.44,65.08Z"/>
            <ellipse class="cls-7" cx="1299.69" cy="122.59" rx="21.37" ry="19.45"/>
          </g>
          <polygon points="1157.87 313.21 1299.31 313.21 1298.26 323 1159 323 1157.87 313.21"/>
          <rect class="cls-11" x="1202.78" y="313.21" width="13.5" height="9.79"/>
          <g>
            <path class="cls-2" d="M1158.2,227.17V247s-57.31,46.22-4.36,71.31l-16.68,30.4-30.46-40.31s-16.68-14.52,0-28.39Z"/>
            <g>
              <path class="cls-3" d="M1163.47,314s-46.29-3.66-35.22,49.46c0,0,8,10.07,24.15,0,0,0,6.88-3.59,1.67-5.55,0,0,16,.28,9.4-10.33,0,0,17.29-.56,6.25-11.45C1169.7,336.13,1192.52,326,1163.47,314Z"/>
              <polygon class="cls-4" points="1156.18 326.4 1170.06 335.92 1169.59 336.5 1155.63 326.81 1156.18 326.4"/>
              <polygon class="cls-4" points="1150.01 337.94 1163.89 347.44 1163.42 348.02 1149.46 338.36 1150.01 337.94"/>
              <polygon class="cls-4" points="1139.44 349.48 1154.22 357.76 1153.82 358.38 1138.93 349.94 1139.44 349.48"/>
            </g>
          </g>
          <g>
            <path class="cls-2" d="M1299.31,227.17V248.3s55.86,46.87,0,72L1316,352.65l34.09-44.24s13.79-13.2,0-29.05Z"/>
            <g>
              <path class="cls-3" d="M1277.32,317.59s56.81-9.14,37,47.7c0,0-22,11.1-26-5.59,0,0-11.62,1.11-8.48-10.36,0,0-17.26,0-7.22-13.47C1272.61,335.87,1255.35,325.59,1277.32,317.59Z"/>
              <polygon class="cls-4" points="1301.13 349.31 1288.45 360.11 1287.9 359.58 1300.79 348.75 1301.13 349.31"/>
              <polygon class="cls-4" points="1293.4 339.44 1280.21 349.71 1279.69 349.18 1293.08 338.86 1293.4 339.44"/>
              <polygon class="cls-4" points="1288.58 329.49 1272.9 336.27 1272.55 335.63 1288.43 328.85 1288.58 329.49"/>
            </g>
          </g>
          <path class="cls-2" d="M1173.7,374.68l4.53,43.33,19,43.31s-20.53.36-23.53,19.36H1188l28.67-16-22.18-46.35-1.82-43.65Z"/>
          <path class="cls-2" d="M1265.7,374.68l-14,47-1,50.45s-22-5.45-34,8.55h49l.47-53,16.53-53Z"/>
        </g>
      </g>
    </g>
    <g>
      <rect class="cls-18" x="699.58" y="0.4" width="350" height="500"/>
      <g id="trin_3" data-name="trin 3">
        <g>
          <path class="cls-2" d="M932.28,375c1.65-3.54,14.65-32.47,16.65-65.6V227.22s-95.6,10.52-141.82,0v86s2,31.22,16.3,61.78H932.28Z"/>
          <path class="cls-5" d="M866.34,231.89l7.79,17.67s50.15-2.7,74.41-19.65l.38-2.69Z"/>
          <path class="cls-5" d="M852.44,231.26l-10.11,17.61s-25.21-5.41-34.15-17l-1.08-5.37Z"/>
          <polyline class="cls-5" points="842.33 248.87 842.17 285.92 859.17 296.62 874.13 285.92 874.13 249.56 866.34 231.89 852.44 231.26"/>
          <polygon class="cls-6" points="852.44 231.26 844.84 244.64 848.64 249.56 844.84 276.09 859.17 296.62 858.15 231.52 852.44 231.26"/>
          <polygon class="cls-6" points="863.86 231.28 871.88 244.46 868.23 249.48 872.85 275.91 859.17 296.79 858.17 231.69 863.86 231.28"/>
          <g>
            <polygon class="cls-7" points="959.52 169.61 959.52 161.58 948.54 161.58 948.54 203.31 959.52 203.31 959.52 169.61"/>
            <polygon class="cls-7" points="807.1 170.81 807.1 162.79 796.13 162.79 796.13 204.51 807.1 204.51 807.1 170.81"/>
            <ellipse class="cls-7" cx="813.18" cy="128.29" rx="25.81" ry="23.49"/>
            <path class="cls-3" d="M807.1,227.22V170.81s-34.66-12.42,0-31.54V107.73H948.93v32.5s41,13.39,0,27.25v59.75S867,237.73,807.1,227.22Z"/>
            <path class="cls-4" d="M806.75,145.32s-11.83.85-10.52,11.79l2.82-.68s-2.25-6.67,7.7-9.06Z"/>
            <path class="cls-4" d="M961.75,155.06s-.8-10.78-12.83-9.71l.72,2.57s7.35-2,9.86,7.12Z"/>
            <g>
              <ellipse cx="859.17" cy="203.31" rx="19.07" ry="17.35"/>
              <g>
                <ellipse class="cls-8" cx="833.07" cy="141.89" rx="11.34" ry="10.32"/>
                <ellipse class="cls-9" cx="833.07" cy="142.09" rx="7.31" ry="6.65"/>
                <ellipse cx="833.07" cy="142.09" rx="4.65" ry="4.23"/>
                <ellipse class="cls-5" cx="836.53" cy="138.94" rx="1.19" ry="1.08"/>
              </g>
              <g>
                <ellipse class="cls-8" cx="888.77" cy="141.89" rx="11.17" ry="10.17"/>
                <ellipse class="cls-9" cx="888.77" cy="142.09" rx="7.2" ry="6.55"/>
                <ellipse cx="888.77" cy="142.09" rx="4.58" ry="4.17"/>
                <ellipse class="cls-5" cx="892.18" cy="138.98" rx="1.17" ry="1.06"/>
              </g>
              <path class="cls-4" d="M859.37,155.08s-5.22-.6-6.26,5.26v7s-.87,7.29,6.26,7.61c0,0,6.1.47,7-7V160.5S866.16,154.88,859.37,155.08Z"/>
              <path class="cls-7" d="M844,122.92l-20.93-3.07s-6.89,2.25-1.16,6.55l20.93,3.07S850.18,127.29,844,122.92Z"/>
              <path class="cls-7" d="M897.27,120l-20.86,2.84s-5.78,4,1.08,6.53l20.86-2.85S904.56,122.42,897.27,120Z"/>
              <path class="cls-10" d="M843.75,213.49s16.34-8.42,30.84,0a17,17,0,0,1-7.13,5.43s-6,3.39-14.68.72A18.77,18.77,0,0,1,843.75,213.49Z"/>
              <path class="cls-5" d="M842.17,195.47h34s-4.2-9.35-17-9.51C859.17,186,847.69,185.48,842.17,195.47Z"/>
            </g>
            <path class="cls-7" d="M936.67,65.13H810.93s-25.63,5-23.26,25.49a29.92,29.92,0,0,0,20.41,25.49H941.42s26.58-1.3,22.07-27S936.67,65.13,936.67,65.13Z"/>
            <ellipse class="cls-7" cx="948.92" cy="122.64" rx="21.37" ry="19.45"/>
          </g>
          <polygon points="807.1 313.26 948.54 313.26 947.49 323.05 808.23 323.05 807.1 313.26"/>
          <rect class="cls-11" x="852.01" y="313.26" width="13.5" height="9.79"/>
          <g>
            <path class="cls-2" d="M807.43,227.22V247s-57.31,46.22-4.36,71.31l-16.68,30.4-30.46-40.31s-16.68-14.52,0-28.39Z"/>
            <g>
              <path class="cls-3" d="M812.7,314.05s-46.29-3.66-35.22,49.46c0,0,8,10.07,24.15,0,0,0,6.88-3.59,1.67-5.55,0,0,16,.28,9.4-10.33,0,0,17.29-.56,6.25-11.45C818.93,336.18,841.75,326,812.7,314.05Z"/>
              <polygon class="cls-4" points="805.41 326.45 819.29 335.96 818.82 336.54 804.86 326.86 805.41 326.45"/>
              <polygon class="cls-4" points="799.25 337.99 813.12 347.49 812.65 348.07 798.69 338.4 799.25 337.99"/>
              <polygon class="cls-4" points="788.67 349.52 803.45 357.81 803.05 358.43 788.16 349.98 788.67 349.52"/>
            </g>
          </g>
          <g>
            <path class="cls-2" d="M948.54,227.22v21.13s55.86,46.87,0,72l16.69,32.35,34.09-44.24s13.79-13.2,0-29Z"/>
            <g>
              <path class="cls-3" d="M926.55,317.64s56.81-9.14,37,47.7c0,0-22,11.1-26-5.59,0,0-11.62,1.11-8.48-10.36,0,0-17.26,0-7.22-13.47C921.84,335.92,904.58,325.64,926.55,317.64Z"/>
              <polygon class="cls-4" points="950.36 349.35 937.68 360.15 937.13 359.63 950.02 348.79 950.36 349.35"/>
              <polygon class="cls-4" points="942.63 339.48 929.44 349.76 928.92 349.22 942.31 338.9 942.63 339.48"/>
              <polygon class="cls-4" points="937.81 329.53 922.13 336.32 921.78 335.67 937.66 328.89 937.81 329.53"/>
            </g>
          </g>
          <path class="cls-2" d="M822.93,374.73l-11,47,21,36s-21,6-16,23l36-22-20-39,9-45Z"/>
          <path class="cls-2" d="M914.93,374.73l-7,53v44.64s-26-6.64-34,8.36h47.84l.16-53,10-53Z"/>
        </g>
      </g>
    </g>
    <g>
      <rect class="cls-19" x="-0.09" width="349.58" height="500"/>
      <g id="trin_1" data-name="trin 1">
        <g>
          <path class="cls-2" d="M125.51,374.34l-6,43-9,54s-9-18-27-9l27,18h15l14-62,7.33-43.69-21.33-.31"/>
          <path class="cls-2" d="M233.86,374.65c1.64-3.54,14.67-32.47,16.64-65.6V226.83s-95.6,10.52-141.82,0v86s2,31.22,16.3,61.78H233.86Z"/>
          <path class="cls-5" d="M167.92,231.5l7.79,17.67s50.15-2.7,74.41-19.65l.38-2.69Z"/>
          <path class="cls-5" d="M154,230.87l-10.11,17.61s-25.21-5.41-34.15-17l-1.08-5.37Z"/>
          <polyline class="cls-5" points="143.91 248.48 143.75 285.53 160.75 296.23 175.71 285.53 175.71 249.17 167.91 231.5 154.01 230.87"/>
          <polygon class="cls-6" points="154.01 230.87 146.41 244.25 150.22 249.17 146.41 275.7 160.75 296.23 159.72 231.13 154.01 230.87"/>
          <polygon class="cls-6" points="165.44 230.89 173.46 244.07 169.81 249.09 174.43 275.52 160.75 296.4 159.75 231.3 165.44 230.89"/>
          <g>
            <polygon class="cls-7" points="261.1 169.22 261.1 161.19 250.12 161.19 250.12 202.92 261.1 202.92 261.1 169.22"/>
            <polygon class="cls-7" points="108.67 170.42 108.67 162.4 97.7 162.4 97.7 204.12 108.67 204.12 108.67 170.42"/>
            <ellipse class="cls-7" cx="114.76" cy="127.9" rx="25.81" ry="23.49"/>
            <path class="cls-3" d="M108.68,226.83V170.42S74,158,108.68,138.88V107.34H250.51v32.5s41,13.39,0,27.25v59.75S168.56,237.34,108.68,226.83Z"/>
            <path class="cls-4" d="M108.33,144.93s-11.83.85-10.52,11.79l2.82-.68s-2.25-6.67,7.7-9.06Z"/>
            <path class="cls-4" d="M263.33,154.67s-.8-10.78-12.83-9.71l.72,2.57s7.35-2,9.86,7.12Z"/>
            <g>
              <ellipse cx="160.75" cy="202.92" rx="19.07" ry="17.35"/>
              <g>
                <ellipse class="cls-8" cx="134.65" cy="141.5" rx="11.34" ry="10.32"/>
                <ellipse class="cls-9" cx="134.65" cy="141.7" rx="7.31" ry="6.65"/>
                <ellipse cx="134.65" cy="141.7" rx="4.65" ry="4.23"/>
                <ellipse class="cls-5" cx="138.11" cy="138.55" rx="1.19" ry="1.08"/>
              </g>
              <g>
                <ellipse class="cls-8" cx="190.35" cy="141.5" rx="11.17" ry="10.17"/>
                <ellipse class="cls-9" cx="190.35" cy="141.7" rx="7.2" ry="6.55"/>
                <ellipse cx="190.35" cy="141.7" rx="4.58" ry="4.17"/>
                <ellipse class="cls-5" cx="193.76" cy="138.59" rx="1.17" ry="1.06"/>
              </g>
              <path class="cls-4" d="M161,154.69s-5.22-.6-6.26,5.26v7s-.87,7.29,6.26,7.61c0,0,6.1.47,7-7v-7.45S167.74,154.49,161,154.69Z"/>
              <path class="cls-7" d="M145.6,122.53l-20.93-3.07s-6.89,2.25-1.16,6.55l20.93,3.07S151.76,126.9,145.6,122.53Z"/>
              <path class="cls-7" d="M198.85,119.59,178,122.43s-5.78,4,1.08,6.53l20.86-2.85S206.14,122,198.85,119.59Z"/>
              <path class="cls-10" d="M145.33,213.1s16.34-8.42,30.84,0a17.12,17.12,0,0,1-7.13,5.43s-6,3.39-14.68.72A18.73,18.73,0,0,1,145.33,213.1Z"/>
              <path class="cls-5" d="M143.75,195.08h34s-4.2-9.35-17-9.51C160.75,185.57,149.27,185.09,143.75,195.08Z"/>
            </g>
            <path class="cls-7" d="M238.25,64.74H112.51s-25.63,5-23.26,25.49a29.94,29.94,0,0,0,20.41,25.49H243.05s26.58-1.3,22.07-27S238.25,64.74,238.25,64.74Z"/>
            <ellipse class="cls-7" cx="250.5" cy="122.25" rx="21.37" ry="19.45"/>
          </g>
          <polygon points="108.67 312.87 250.12 312.87 249.06 322.66 109.81 322.66 108.67 312.87"/>
          <rect class="cls-11" x="153.59" y="312.87" width="13.5" height="9.79"/>
          <g>
            <path class="cls-2" d="M109,226.83v19.8s-57.31,46.22-4.36,71.31L88,348.34,57.51,308s-16.68-14.52,0-28.39Z"/>
            <g>
              <path class="cls-3" d="M114.28,313.66S68,310,79.06,363.12c0,0,8,10.07,24.15,0,0,0,6.88-3.59,1.67-5.55,0,0,16.05.28,9.4-10.33,0,0,17.29-.56,6.25-11.45C120.51,335.79,143.33,325.61,114.28,313.66Z"/>
              <polygon class="cls-4" points="106.98 326.06 120.86 335.57 120.39 336.15 106.44 326.47 106.98 326.06"/>
              <polygon class="cls-4" points="100.83 337.6 114.69 347.1 114.22 347.68 100.27 338.01 100.83 337.6"/>
              <polygon class="cls-4" points="90.25 349.13 105.03 357.42 104.63 358.04 89.73 349.59 90.25 349.13"/>
            </g>
          </g>
          <g>
            <path class="cls-2" d="M250.12,226.83V248s55.86,46.87,0,72l16.69,32.35,34.09-44.24s13.79-13.2,0-29.05Z"/>
            <g>
              <path class="cls-3" d="M228.13,317.25s56.81-9.14,37,47.7c0,0-22,11.1-26-5.59,0,0-11.62,1.11-8.48-10.36,0,0-17.26,0-7.22-13.47C223.42,335.53,206.16,325.25,228.13,317.25Z"/>
              <polygon class="cls-4" points="251.94 348.96 239.25 359.76 238.71 359.24 251.59 348.4 251.94 348.96"/>
              <polygon class="cls-4" points="244.21 339.09 231.01 349.37 230.5 348.83 243.88 338.51 244.21 339.09"/>
              <polygon class="cls-4" points="239.38 329.14 223.69 335.93 223.35 335.28 239.24 328.5 239.38 329.14"/>
            </g>
          </g>
          <path class="cls-2" d="M233.51,374.34l6,53,8,33,5,11-27,9h-14s3-11,14-12l8-4-8-37-9.3-53Z"/>
        </g>
      </g>
    </g>
    <g>
      <rect class="cls-20" x="349.24" y="0.59" width="350" height="500"/>
      <g id="trin_2" data-name="trin 2">
        <g>
          <path class="cls-2" d="M582.47,374.57c1.64-3.54,14.67-32.47,16.64-65.6V226.75s-95.6,10.52-141.82,0v86s2,31.22,16.3,61.78H582.47Z"/>
          <path class="cls-5" d="M516.53,231.42l7.79,17.67s50.15-2.7,74.41-19.65l.38-2.69Z"/>
          <path class="cls-5" d="M502.63,230.79,492.52,248.4s-25.21-5.41-34.15-17L457.29,226Z"/>
          <polyline class="cls-5" points="492.52 248.4 492.36 285.45 509.36 296.15 524.32 285.45 524.32 249.09 516.53 231.42 502.63 230.79"/>
          <polygon class="cls-6" points="502.63 230.79 495.03 244.17 498.83 249.09 495.03 275.62 509.36 296.15 508.34 231.05 502.63 230.79"/>
          <polygon class="cls-6" points="514.05 230.81 522.07 243.99 518.42 249.01 523.04 275.44 509.36 296.32 508.36 231.22 514.05 230.81"/>
          <g>
            <polygon class="cls-7" points="609.71 169.14 609.71 161.11 598.73 161.11 598.73 202.84 609.71 202.84 609.71 169.14"/>
            <polygon class="cls-7" points="457.29 170.34 457.29 162.32 446.32 162.32 446.32 204.04 457.29 204.04 457.29 170.34"/>
            <ellipse class="cls-7" cx="463.37" cy="127.82" rx="25.81" ry="23.49"/>
            <path class="cls-3" d="M457.29,226.75V170.34s-34.66-12.42,0-31.54V107.26H599.12v32.5s41,13.39,0,27.25v59.75S517.17,237.26,457.29,226.75Z"/>
            <path class="cls-4" d="M456.94,144.85s-11.83.85-10.52,11.79l2.82-.68s-2.25-6.67,7.7-9.06Z"/>
            <path class="cls-4" d="M611.94,154.59s-.8-10.78-12.83-9.71l.72,2.57s7.35-2,9.86,7.12Z"/>
            <g>
              <ellipse cx="509.36" cy="202.84" rx="19.07" ry="17.35"/>
              <g>
                <ellipse class="cls-8" cx="483.26" cy="141.42" rx="11.34" ry="10.32"/>
                <ellipse class="cls-9" cx="483.26" cy="141.62" rx="7.31" ry="6.65"/>
                <ellipse cx="483.26" cy="141.62" rx="4.65" ry="4.23"/>
                <ellipse class="cls-5" cx="486.72" cy="138.47" rx="1.19" ry="1.08"/>
              </g>
              <g>
                <ellipse class="cls-8" cx="538.96" cy="141.42" rx="11.17" ry="10.17"/>
                <ellipse class="cls-9" cx="538.96" cy="141.62" rx="7.2" ry="6.55"/>
                <ellipse cx="538.96" cy="141.62" rx="4.58" ry="4.17"/>
                <ellipse class="cls-5" cx="542.37" cy="138.51" rx="1.17" ry="1.06"/>
              </g>
              <path class="cls-4" d="M509.56,154.61s-5.22-.6-6.26,5.26v7s-.87,7.29,6.26,7.61c0,0,6.1.47,7-7V160S516.35,154.41,509.56,154.61Z"/>
              <path class="cls-7" d="M494.21,122.45l-20.93-3.07s-6.89,2.25-1.16,6.55L493.05,129S500.37,126.82,494.21,122.45Z"/>
              <path class="cls-7" d="M547.46,119.51l-20.86,2.84s-5.78,4,1.08,6.53L548.54,126S554.75,122,547.46,119.51Z"/>
              <path class="cls-10" d="M493.94,213s16.34-8.42,30.84,0a17.05,17.05,0,0,1-7.13,5.43s-6,3.39-14.68.72A18.77,18.77,0,0,1,493.94,213Z"/>
              <path class="cls-5" d="M492.36,195h34s-4.2-9.35-17-9.51C509.36,185.49,497.88,185,492.36,195Z"/>
            </g>
            <path class="cls-7" d="M586.86,64.66H461.12s-25.63,5-23.26,25.49a29.94,29.94,0,0,0,20.41,25.49H591.66s26.58-1.3,22.07-27S586.86,64.66,586.86,64.66Z"/>
            <ellipse class="cls-7" cx="599.11" cy="122.17" rx="21.37" ry="19.45"/>
          </g>
          <polygon points="457.29 312.79 598.73 312.79 597.68 322.58 458.42 322.58 457.29 312.79"/>
          <rect class="cls-11" x="502.2" y="312.79" width="13.5" height="9.79"/>
          <g>
            <path class="cls-2" d="M457.62,226.75v19.8s-57.31,46.22-4.36,71.31l-16.68,30.4L406.12,308s-16.68-14.52,0-28.39Z"/>
            <g>
              <path class="cls-3" d="M462.89,313.58S416.6,309.92,427.67,363c0,0,8,10.07,24.15,0,0,0,6.88-3.59,1.67-5.55,0,0,16.05.28,9.4-10.33,0,0,17.29-.56,6.25-11.45C469.12,335.71,491.94,325.53,462.89,313.58Z"/>
              <polygon class="cls-4" points="455.6 325.98 469.48 335.49 469.01 336.07 455.05 326.39 455.6 325.98"/>
              <polygon class="cls-4" points="449.44 337.52 463.31 347.02 462.84 347.6 448.88 337.93 449.44 337.52"/>
              <polygon class="cls-4" points="438.86 349.05 453.64 357.34 453.24 357.96 438.35 349.51 438.86 349.05"/>
            </g>
          </g>
          <g>
            <path class="cls-2" d="M598.73,226.75v21.13s55.86,46.87,0,72l16.69,32.35L649.51,308s13.79-13.2,0-29.05Z"/>
            <g>
              <path class="cls-3" d="M576.74,317.17s56.81-9.14,37,47.7c0,0-22,11.1-26-5.59,0,0-11.62,1.11-8.48-10.36,0,0-17.26,0-7.22-13.47C572,335.45,554.77,325.17,576.74,317.17Z"/>
              <polygon class="cls-4" points="600.55 348.88 587.87 359.68 587.32 359.16 600.21 348.32 600.55 348.88"/>
              <polygon class="cls-4" points="592.82 339.01 579.63 349.29 579.11 348.75 592.5 338.43 592.82 339.01"/>
              <polygon class="cls-4" points="588 329.06 572.31 335.85 571.97 335.2 587.85 328.42 588 329.06"/>
            </g>
          </g>
          <path class="cls-2" d="M473.12,374.26l-16,47-1,41s-24-5-30,18l47-7v-46l19-53Z"/>
          <path class="cls-2" d="M582.12,374.26l-4.38,53.16,9.58,40.5.8,12.34H543.54s4.58-14,28.58-14l-11-39,4-53Z"/>
        </g>
      </g>
    </g>
  </g>
</svg>
